<svg width="13" height="12" viewBox="0 0 13 12" fill="none" xmlns="http://www.w3.org/2000/svg">
<path fill-rule="evenodd" clip-rule="evenodd" d="M0.949674 1.08966C0.949674 1.02479 0.968154 0.978461 1.0421 0.978461C1.63362 0.950658 2.50239 0.932129 3.41744 0.932129C5.97763 0.932129 7.09599 2.34065 7.09599 4.13834C7.09599 6.49209 5.39533 7.50213 3.3065 7.50213C2.95532 7.50213 2.83513 7.48358 2.58557 7.48358V11.042C2.58557 11.1161 2.55789 11.1532 2.47471 11.1532H1.05134C0.977397 11.1532 0.94043 11.1254 0.94043 11.042V1.08966H0.949674ZM2.58557 6.01023C2.7982 6.02878 2.96457 6.02878 3.33425 6.02878C4.4156 6.02878 5.43226 5.64886 5.43226 4.17544C5.43226 2.99859 4.71141 2.40552 3.47287 2.40552C3.10319 2.40552 2.75195 2.42405 2.58557 2.43332V6.01023ZM8.50083 5.16699C8.50083 5.05577 8.50083 4.78701 8.45458 4.26811C8.45458 4.19398 8.46383 4.17544 8.52858 4.14761C9.09231 3.91595 10.414 3.50821 11.9113 3.50821C11.9853 3.50821 12.0222 3.52676 12.0222 3.60089V4.94454C12.0222 5.01867 11.9945 5.03722 11.9206 5.03722C11.3383 5.00946 10.4972 5.08359 10.1737 5.22257V11.0606C10.1737 11.1347 10.146 11.1717 10.0628 11.1717H8.6117C8.53776 11.1717 8.50083 11.1439 8.50083 11.0606V5.16699Z" fill="#EA77FF"/>
</svg>
